<mxfile host="65bd71144e">
    <diagram id="wK2UDAQub-9VcpRcY1rV" name="Page-1">
        <mxGraphModel dx="862" dy="1056" grid="1" gridSize="10" guides="1" tooltips="1" connect="1" arrows="1" fold="1" page="1" pageScale="1" pageWidth="850" pageHeight="1100" math="0" shadow="0">
            <root>
                <mxCell id="0"/>
                <mxCell id="1" parent="0"/>
                <mxCell id="2" value="AATree" style="swimlane;fontStyle=0;childLayout=stackLayout;horizontal=1;startSize=30;horizontalStack=0;resizeParent=1;resizeParentMax=0;resizeLast=0;collapsible=1;marginBottom=0;whiteSpace=wrap;html=1;" vertex="1" parent="1">
                    <mxGeometry x="170" y="240" width="280" height="280" as="geometry"/>
                </mxCell>
                <mxCell id="3" value="root - корень дерева&lt;div&gt;nullNode - узел с уровнем 0&lt;/div&gt;" style="text;strokeColor=none;fillColor=none;align=left;verticalAlign=middle;spacingLeft=4;spacingRight=4;overflow=hidden;points=[[0,0.5],[1,0.5]];portConstraint=eastwest;rotatable=0;whiteSpace=wrap;html=1;" vertex="1" parent="2">
                    <mxGeometry y="30" width="280" height="40" as="geometry"/>
                </mxCell>
                <mxCell id="4" value="конструктор" style="text;strokeColor=none;fillColor=none;align=left;verticalAlign=middle;spacingLeft=4;spacingRight=4;overflow=hidden;points=[[0,0.5],[1,0.5]];portConstraint=eastwest;rotatable=0;whiteSpace=wrap;html=1;" vertex="1" parent="2">
                    <mxGeometry y="70" width="280" height="30" as="geometry"/>
                </mxCell>
                <mxCell id="5" value="skew() - левый поворот&lt;div&gt;split() - правый поворт&lt;/div&gt;&lt;div&gt;insert() - добавление&lt;/div&gt;&lt;div&gt;delete() - удаление&lt;/div&gt;&lt;div&gt;findMinNode() - вспом метод&lt;/div&gt;&lt;div&gt;get() - получение значения по ключу&lt;/div&gt;&lt;div&gt;size() - кол-во узлов в дереве&lt;/div&gt;&lt;div&gt;getHeight() - высота дерева&lt;/div&gt;&lt;div&gt;inOrderTraversal() - симметрич обход&lt;/div&gt;&lt;div&gt;preOrderTraversal() - прямой обход&lt;/div&gt;&lt;div&gt;postOrderTraversal() - обратный обход&lt;/div&gt;&lt;div&gt;&lt;br&gt;&lt;/div&gt;" style="text;strokeColor=none;fillColor=none;align=left;verticalAlign=middle;spacingLeft=4;spacingRight=4;overflow=hidden;points=[[0,0.5],[1,0.5]];portConstraint=eastwest;rotatable=0;whiteSpace=wrap;html=1;" vertex="1" parent="2">
                    <mxGeometry y="100" width="280" height="180" as="geometry"/>
                </mxCell>
                <mxCell id="7" value="AANode" style="swimlane;fontStyle=0;childLayout=stackLayout;horizontal=1;startSize=30;horizontalStack=0;resizeParent=1;resizeParentMax=0;resizeLast=0;collapsible=1;marginBottom=0;whiteSpace=wrap;html=1;" vertex="1" parent="1">
                    <mxGeometry x="190" y="650" width="240" height="130" as="geometry"/>
                </mxCell>
                <mxCell id="8" value="level - уровень узла&lt;div&gt;key, value,&amp;nbsp;&lt;/div&gt;&lt;div&gt;left - левый ребенок,&amp;nbsp;&lt;/div&gt;&lt;div&gt;right - правый ребенок&amp;nbsp;&lt;/div&gt;" style="text;strokeColor=none;fillColor=none;align=left;verticalAlign=middle;spacingLeft=4;spacingRight=4;overflow=hidden;points=[[0,0.5],[1,0.5]];portConstraint=eastwest;rotatable=0;whiteSpace=wrap;html=1;" vertex="1" parent="7">
                    <mxGeometry y="30" width="240" height="70" as="geometry"/>
                </mxCell>
                <mxCell id="9" value="конструктор" style="text;strokeColor=none;fillColor=none;align=left;verticalAlign=middle;spacingLeft=4;spacingRight=4;overflow=hidden;points=[[0,0.5],[1,0.5]];portConstraint=eastwest;rotatable=0;whiteSpace=wrap;html=1;" vertex="1" parent="7">
                    <mxGeometry y="100" width="240" height="30" as="geometry"/>
                </mxCell>
                <mxCell id="11" value="" style="endArrow=none;html=1;exitX=0.486;exitY=1.01;exitDx=0;exitDy=0;exitPerimeter=0;entryX=0.5;entryY=0;entryDx=0;entryDy=0;" edge="1" parent="1" source="5" target="7">
                    <mxGeometry width="50" height="50" relative="1" as="geometry">
                        <mxPoint x="360" y="440" as="sourcePoint"/>
                        <mxPoint x="410" y="390" as="targetPoint"/>
                    </mxGeometry>
                </mxCell>
            </root>
        </mxGraphModel>
    </diagram>
</mxfile>